<?xml version="1.0" encoding="UTF-8"?>
<svg width="32px" height="39px" viewBox="0 0 32 39" version="1.1" xmlns="http://www.w3.org/2000/svg" xmlns:xlink="http://www.w3.org/1999/xlink">
    <!-- Generator: Sketch 47.1 (45422) - http://www.bohemiancoding.com/sketch -->
    <title>noun_1101454_cc</title>
    <desc>Created with Sketch.</desc>
    <defs></defs>
    <g id="2.0" stroke="none" stroke-width="1" fill="none" fill-rule="evenodd">
        <g id="Playbook-ui" transform="translate(-528.000000, -2801.000000)" fill-rule="nonzero" fill="#000000">
            <g id="02" transform="translate(225.000000, 2365.000000)">
                <g id="noun_1101454_cc" transform="translate(303.000000, 436.000000)">
                    <g id="Group">
                        <path d="M3.54457143,18.76875 L28.4554286,18.76875 C28.6177143,18.76875 28.7394286,18.646875 28.7394286,18.484375 L28.7394286,16.81875 C28.7394286,16.65625 28.6177143,16.534375 28.4554286,16.534375 L26.3051429,16.534375 C25.5748571,12.59375 22.6131429,9.425 18.7994286,8.36875 L18.7994286,7.840625 C18.7994286,7.678125 18.6777143,7.55625 18.5154286,7.55625 L16.9737143,7.55625 L16.9737143,6.946875 C16.9737143,6.784375 16.852,6.6625 16.6897143,6.6625 L16.3245714,6.6625 L16.3245714,3.696875 L19.4891429,3.696875 C19.7325714,3.696875 19.8948571,3.534375 19.8948571,3.290625 L19.8948571,1.259375 C19.8948571,1.015625 19.7325714,0.853125 19.4891429,0.853125 L16.3245714,0.853125 L16.3245714,0.446875 C16.3245714,0.325 16.2028571,0.203125 16.0811429,0.203125 L15.8377143,0.203125 C15.716,0.203125 15.5942857,0.325 15.5942857,0.446875 L15.5942857,6.6625 L15.1885714,6.6625 C15.0262857,6.6625 14.9045714,6.784375 14.9045714,6.946875 L14.9045714,7.55625 L13.3628571,7.55625 C13.2005714,7.55625 13.0788571,7.678125 13.0788571,7.840625 L13.0788571,8.36875 C9.26514286,9.425 6.344,12.59375 5.57314286,16.534375 L3.42285714,16.534375 C3.26057143,16.534375 3.13885714,16.65625 3.13885714,16.81875 L3.13885714,18.484375 C3.26057143,18.646875 3.38228571,18.76875 3.54457143,18.76875 Z" id="Shape"></path>
                        <path d="M31.6605714,36.603125 L30.3622857,36.603125 L30.3622857,34.653125 C30.3622857,34.490625 30.2405714,34.36875 30.0782857,34.36875 L28.7394286,34.36875 L28.7394286,20.028125 C28.7394286,19.865625 28.6177143,19.74375 28.4554286,19.74375 L3.54457143,19.74375 C3.38228571,19.74375 3.26057143,19.865625 3.26057143,20.028125 L3.26057143,34.36875 L1.92171429,34.36875 C1.75942857,34.36875 1.63771429,34.490625 1.63771429,34.653125 L1.63771429,36.603125 L0.339428571,36.603125 C0.177142857,36.603125 0.0554285714,36.725 0.0554285714,36.8875 L0.0554285714,38.553125 C0.0554285714,38.715625 0.177142857,38.8375 0.339428571,38.8375 L31.6605714,38.8375 C31.8228571,38.8375 31.9445714,38.715625 31.9445714,38.553125 L31.9445714,36.8875 C31.9445714,36.725 31.8228571,36.603125 31.6605714,36.603125 Z M21.7205714,21.9375 L24.2765714,21.9375 L24.2765714,34.36875 L21.7205714,34.36875 L21.7205714,21.9375 Z M17.2982857,34.36875 L14.7422857,34.36875 L14.7422857,21.9375 L17.2982857,21.9375 L17.2982857,34.36875 Z M7.72342857,21.9375 L10.2794286,21.9375 L10.2794286,34.36875 L7.72342857,34.36875 L7.72342857,21.9375 Z" id="Shape"></path>
                    </g>
                </g>
            </g>
        </g>
    </g>
</svg>