<?xml version="1.0" encoding="UTF-8"?>
<svg width="41px" height="40px" viewBox="0 0 41 40" version="1.1" xmlns="http://www.w3.org/2000/svg" xmlns:xlink="http://www.w3.org/1999/xlink">
    <!-- Generator: Sketch 47.1 (45422) - http://www.bohemiancoding.com/sketch -->
    <title>noun_1190927_cc</title>
    <desc>Created with Sketch.</desc>
    <defs></defs>
    <g id="2.0" stroke="none" stroke-width="1" fill="none" fill-rule="evenodd">
        <g id="Playbook-ui" transform="translate(-781.000000, -2825.000000)" fill-rule="nonzero" fill="#E3E3E3">
            <g id="02" transform="translate(225.000000, 2365.000000)">
                <g id="noun_1190927_cc" transform="translate(556.000000, 460.000000)">
                    <g id="Group">
                        <ellipse id="Oval" cx="16.5546336" cy="24.3277217" rx="2.07209052" ry="2.10549944"></ellipse>
                        <path d="M17.853556,24.3277217 C17.853556,24.3815937 17.853556,24.4309764 17.8491379,24.4848485 C17.8447198,24.5387205 17.809375,24.6689113 17.8491379,24.4893378 C17.8270474,24.5791246 17.8137931,24.6689113 17.7828664,24.7542088 C17.7696121,24.8035915 17.7519397,24.8484848 17.7342672,24.8933782 C17.7431034,24.8664422 17.809375,24.7452301 17.7386853,24.8709315 C17.6900862,24.956229 17.6414871,25.0415264 17.5884698,25.1268238 C17.4956897,25.2794613 17.6679957,25.0639731 17.5840517,25.1313131 C17.5487069,25.1582492 17.5177802,25.2076319 17.4868534,25.2390572 C17.4603448,25.2659933 17.4338362,25.2929293 17.4029095,25.3198653 C17.3984914,25.3243547 17.252694,25.4500561 17.3498922,25.3737374 C17.4470905,25.2974186 17.2924569,25.4096521 17.2880388,25.4141414 C17.2571121,25.4365881 17.2217672,25.4545455 17.1908405,25.4769921 C17.1554957,25.4949495 17.1201509,25.5129068 17.0892241,25.5308642 C16.956681,25.6071829 17.2173491,25.4904602 17.0317888,25.5578002 C16.9478448,25.5892256 16.8594828,25.6071829 16.7755388,25.6296296 C16.6385776,25.6655443 16.7755388,25.634119 16.8020474,25.6296296 C16.7490302,25.634119 16.700431,25.6386083 16.6474138,25.6430976 C16.5546336,25.647587 16.4618534,25.6430976 16.3690733,25.6386083 C16.1746767,25.6251403 16.4795259,25.6700337 16.3646552,25.6386083 C16.3072198,25.620651 16.2497845,25.6116723 16.1923491,25.5982043 C16.1304957,25.5802469 15.9140086,25.4680135 16.0730603,25.5622896 C15.9979526,25.5173962 15.9184267,25.4814815 15.843319,25.4365881 C15.803556,25.4096521 15.7637931,25.382716 15.7240302,25.35578 C15.8565733,25.4455668 15.7726293,25.3961841 15.7461207,25.369248 C15.675431,25.2974186 15.6003233,25.2031425 15.5252155,25.1402918 C15.4456897,25.0729517 15.6135776,25.28844 15.5207974,25.1358025 C15.4987069,25.1043771 15.4766164,25.0684624 15.458944,25.037037 C15.4324353,24.996633 15.3087284,24.7182941 15.3794181,24.9068462 C15.3529095,24.8305275 15.3264009,24.7542088 15.3043103,24.67789 C15.291056,24.6285073 15.2866379,24.5791246 15.2689655,24.5297419 C15.2601293,24.4713805 15.2601293,24.4893378 15.2733836,24.5881033 C15.2689655,24.5566779 15.2689655,24.5252525 15.2645474,24.4938272 C15.2557112,24.3995511 15.2557112,24.305275 15.2601293,24.2109989 C15.2601293,24.1975309 15.2954741,24.0089787 15.2645474,24.1301908 C15.2336207,24.2558923 15.2822198,24.0628507 15.2822198,24.0538721 C15.2998922,23.9775533 15.3264009,23.9012346 15.3484914,23.8249158 C15.4015086,23.654321 15.2866379,23.9012346 15.3529095,23.8204265 C15.3926724,23.7710438 15.4147629,23.694725 15.4501078,23.6363636 C15.4854526,23.5780022 15.6047414,23.4298541 15.4987069,23.5555556 C15.5605603,23.4792368 15.6268319,23.4074074 15.6975216,23.3400673 C15.7240302,23.3131313 15.7549569,23.2906846 15.7858836,23.2637486 C15.6577586,23.3804714 15.7505388,23.2906846 15.7903017,23.2637486 C15.8830819,23.2053872 15.971444,23.1560045 16.0686422,23.1021324 C15.9184267,23.1784512 16.0907328,23.0976431 16.1570043,23.0751964 C16.2056034,23.0617284 16.5104526,23.0078563 16.3028017,23.030303 C16.3955819,23.0213244 16.4883621,23.016835 16.5811422,23.016835 C16.6341595,23.016835 16.6827586,23.0213244 16.7357759,23.0258137 C16.8992457,23.0347924 16.6032328,22.9854097 16.7711207,23.0347924 C16.868319,23.0617284 16.9610991,23.0841751 17.0582974,23.1156004 C17.2261853,23.1739618 16.9787716,23.0527497 17.0627155,23.1200898 C17.1068966,23.1560045 17.16875,23.1739618 17.2173491,23.2053872 C17.2571121,23.2323232 17.296875,23.2592593 17.341056,23.2861953 C17.4735991,23.3670034 17.2482759,23.1874299 17.3675647,23.308642 C17.4382543,23.375982 17.5045259,23.4478114 17.5707974,23.5151515 C17.6945043,23.6453423 17.5310345,23.4208754 17.5752155,23.5196409 C17.6017241,23.5690236 17.6414871,23.6184063 17.6679957,23.667789 C17.6945043,23.708193 17.7121767,23.7530864 17.7386853,23.7979798 C17.8182112,23.9371493 17.7033405,23.6632997 17.7519397,23.8294052 C17.7828664,23.9236813 17.8049569,24.0224467 17.8314655,24.1212121 C17.8844828,24.305275 17.8270474,24.0044893 17.8358836,24.1257015 C17.8491379,24.1795735 17.853556,24.2514029 17.853556,24.3277217 C17.8579741,24.7362514 18.2070043,25.1313131 18.6267241,25.1133558 C19.0420259,25.0953984 19.4043103,24.7676768 19.3998922,24.3277217 C19.3822198,23.0796857 18.6178879,22.0157127 17.469181,21.5937149 C16.4132543,21.2031425 15.1231681,21.5622896 14.4030172,22.4377104 C13.6210129,23.3849607 13.4707974,24.7542088 14.1158405,25.8226712 C14.7476293,26.8686869 15.9449353,27.3849607 17.124569,27.1604938 C18.4455819,26.9090909 19.3778017,25.6700337 19.3998922,24.332211 C19.4043103,23.9191919 19.0420259,23.5286195 18.6267241,23.5465769 C18.2025862,23.5600449 17.8623922,23.8832772 17.853556,24.3277217 Z" id="Shape"></path>
                        <ellipse id="Oval" cx="24.1626078" cy="20.0987654" rx="1.64353448" ry="1.67003367"></ellipse>
                        <path d="M25.0329741,20.0987654 C25.0329741,20.1391695 25.028556,20.1795735 25.028556,20.2244669 C25.028556,20.2469136 25.0064655,20.3411897 25.028556,20.2424242 C25.0550647,20.1346801 25.0020474,20.345679 24.9932112,20.372615 C24.9799569,20.4130191 24.9667026,20.4489338 24.9534483,20.4848485 C24.9622845,20.4579125 25.028556,20.3411897 24.9622845,20.4579125 C24.9225216,20.5252525 24.8783405,20.5925926 24.8429957,20.6599327 C24.8474138,20.650954 24.9357759,20.5566779 24.8783405,20.6150393 C24.8518319,20.6419753 24.8297414,20.6734007 24.8032328,20.7003367 C24.7546336,20.7497194 24.7060345,20.7946128 24.6574353,20.8395062 C24.7767241,20.7407407 24.6574353,20.8305275 24.6,20.8664422 C24.5690733,20.8843996 24.5293103,20.8978676 24.4983836,20.9203143 C24.4232759,20.9741863 24.6132543,20.8933782 24.5204741,20.9113356 C24.4542026,20.9248036 24.387931,20.9517396 24.3216595,20.969697 C24.1891164,21.0056117 24.3216595,20.9741863 24.3481681,20.969697 C24.3084052,20.9741863 24.2686422,20.9786756 24.2288793,20.9786756 C24.1581897,20.983165 24.0875,20.9741863 24.0123922,20.9741863 C23.9240302,20.969697 24.0609914,20.9786756 24.0698276,20.983165 C24.0212284,20.969697 23.9726293,20.9607183 23.9240302,20.9472503 C23.8577586,20.9292929 23.7252155,20.8619529 23.8621767,20.9337823 C23.8003233,20.9023569 23.7428879,20.8709315 23.6854526,20.8350168 C23.6633621,20.8215488 23.5573276,20.7542088 23.6456897,20.8125701 C23.7252155,20.8664422 23.6501078,20.8170595 23.6324353,20.7991021 C23.575,20.7452301 23.5219828,20.691358 23.4689655,20.6329966 C23.3761853,20.5297419 23.4689655,20.6329966 23.4822198,20.6554433 C23.4601293,20.624018 23.4380388,20.5925926 23.4203664,20.5566779 C23.402694,20.5297419 23.3143319,20.3411897 23.3540948,20.4399551 C23.3938578,20.5387205 23.3231681,20.3367003 23.31875,20.3097643 C23.3099138,20.2828283 23.3099138,20.2514029 23.2966595,20.2199776 C23.2701509,20.1346801 23.2966595,20.3681257 23.2966595,20.2154882 C23.2966595,20.1436588 23.2922414,20.0718294 23.2966595,19.9955107 C23.2966595,19.9640853 23.3231681,19.8383838 23.3010776,19.9461279 C23.2789871,20.0493827 23.3054957,19.9461279 23.3099138,19.9326599 C23.3275862,19.8653199 23.3540948,19.7979798 23.3673491,19.7306397 C23.3850216,19.6318743 23.2966595,19.8338945 23.3585129,19.7530864 C23.3850216,19.7171717 23.402694,19.6632997 23.4292026,19.6228956 C23.4424569,19.6004489 23.4689655,19.5735129 23.4778017,19.5510662 C23.5087284,19.4612795 23.3894397,19.6363636 23.4601293,19.5690236 C23.5087284,19.5241302 23.5484914,19.4657688 23.5970905,19.4208754 C23.619181,19.4029181 23.6412716,19.3849607 23.6633621,19.362514 C23.7296336,19.2906846 23.5529095,19.4118967 23.6456897,19.3804714 C23.703125,19.3580247 23.7959052,19.3041526 23.8445043,19.2637486 C23.9196121,19.2053872 23.7252155,19.2861953 23.8224138,19.2727273 C23.8489224,19.2682379 23.8798491,19.2502806 23.9063578,19.2457912 C23.9284483,19.2368126 24.1405172,19.1829405 24.0344828,19.2098765 C23.9284483,19.2368126 24.0521552,19.2098765 24.0830819,19.2053872 C24.1140086,19.2053872 24.1449353,19.2008979 24.1758621,19.2008979 C24.215625,19.2008979 24.2553879,19.2053872 24.299569,19.2053872 C24.4453664,19.2098765 24.215625,19.1784512 24.3039871,19.2053872 C24.3746767,19.2278339 24.4586207,19.2592593 24.5293103,19.2682379 C24.6044181,19.2772166 24.4939655,19.2547699 24.4807112,19.2457912 C24.5248922,19.2682379 24.5690733,19.2906846 24.6088362,19.3131313 C24.6397629,19.3310887 24.6706897,19.362514 24.7060345,19.375982 C24.7899784,19.4118967 24.5867457,19.2637486 24.7104526,19.375982 C24.7678879,19.4298541 24.8209052,19.4837262 24.8739224,19.5420875 C24.9092672,19.5824916 24.9269397,19.6498316 24.8606681,19.5196409 C24.8783405,19.5555556 24.9048491,19.5824916 24.9225216,19.6184063 C24.9446121,19.6498316 24.9578664,19.6857464 24.9799569,19.7216611 C25.0241379,19.8024691 24.9887931,19.7530864 24.9711207,19.694725 C24.9976293,19.7800224 25.0197198,19.8698092 25.0462284,19.9551066 C25.0727371,20.0359147 25.0418103,19.9057239 25.0418103,19.8967452 C25.028556,19.973064 25.0329741,20.0359147 25.0329741,20.0987654 C25.0418103,20.5072952 25.3820043,20.9023569 25.8061422,20.8843996 C26.2170259,20.8664422 26.5881466,20.5387205 26.5793103,20.0987654 C26.5616379,19.0482604 25.925431,18.1414141 24.9534483,17.7822671 C24.0521552,17.4455668 22.9520474,17.7463524 22.337931,18.4960718 C21.6796336,19.295174 21.5470905,20.4489338 22.0860991,21.3602694 C22.6206897,22.2671156 23.658944,22.7025814 24.6706897,22.5050505 C25.7840517,22.285073 26.5616379,21.2345679 26.5793103,20.1077441 C26.5881466,19.694725 26.2170259,19.3041526 25.8061422,19.32211 C25.3820043,19.3310887 25.0418103,19.654321 25.0329741,20.0987654 Z" id="Shape"></path>
                        <ellipse id="Oval" cx="24.1626078" cy="28.5566779" rx="1.64353448" ry="1.67003367"></ellipse>
                        <path d="M25.0329741,28.5566779 C25.0329741,28.5970819 25.028556,28.637486 25.028556,28.6823793 C25.028556,28.704826 25.0064655,28.7991021 25.028556,28.7003367 C25.0550647,28.5925926 25.0020474,28.8035915 24.9932112,28.8305275 C24.9799569,28.8709315 24.9667026,28.9068462 24.9534483,28.9427609 C24.9622845,28.9158249 25.028556,28.7991021 24.9622845,28.9158249 C24.9225216,28.983165 24.8783405,29.0505051 24.8429957,29.1178451 C24.8474138,29.1088664 24.9357759,29.0145903 24.8783405,29.0729517 C24.8518319,29.0998878 24.8297414,29.1313131 24.8032328,29.1582492 C24.7546336,29.2076319 24.7060345,29.2525253 24.6574353,29.2974186 C24.7767241,29.1986532 24.6574353,29.28844 24.6,29.3243547 C24.5690733,29.342312 24.5293103,29.35578 24.4983836,29.3782267 C24.4232759,29.4320988 24.6132543,29.3512907 24.5204741,29.369248 C24.4542026,29.382716 24.387931,29.4096521 24.3216595,29.4276094 C24.1891164,29.4635241 24.3216595,29.4320988 24.3481681,29.4276094 C24.3084052,29.4320988 24.2686422,29.4365881 24.2288793,29.4365881 C24.1581897,29.4410774 24.0875,29.4320988 24.0123922,29.4320988 C23.9240302,29.4276094 24.0609914,29.4365881 24.0698276,29.4410774 C24.0212284,29.4276094 23.9726293,29.4186308 23.9240302,29.4051627 C23.8577586,29.3872054 23.7252155,29.3198653 23.8621767,29.3916947 C23.8003233,29.3602694 23.7428879,29.328844 23.6854526,29.2929293 C23.6633621,29.2794613 23.5573276,29.2121212 23.6456897,29.2704826 C23.7252155,29.3243547 23.6501078,29.2749719 23.6324353,29.2570146 C23.575,29.2031425 23.5219828,29.1492705 23.4689655,29.0909091 C23.3761853,28.9876543 23.4689655,29.0909091 23.4822198,29.1133558 C23.4601293,29.0819304 23.4380388,29.0505051 23.4203664,29.0145903 C23.402694,28.9876543 23.3143319,28.7991021 23.3540948,28.8978676 C23.3938578,28.996633 23.3231681,28.7946128 23.31875,28.7676768 C23.3099138,28.7407407 23.3099138,28.7093154 23.2966595,28.67789 C23.2701509,28.5925926 23.2966595,28.8260382 23.2966595,28.6734007 C23.2966595,28.6015713 23.2922414,28.5297419 23.2966595,28.4534231 C23.2966595,28.4219978 23.3231681,28.2962963 23.3010776,28.4040404 C23.2789871,28.5072952 23.3054957,28.4040404 23.3099138,28.3905724 C23.3275862,28.3232323 23.3540948,28.2558923 23.3673491,28.1885522 C23.3850216,28.0897868 23.2966595,28.291807 23.3585129,28.2109989 C23.3850216,28.1750842 23.402694,28.1212121 23.4292026,28.0808081 C23.4424569,28.0583614 23.4689655,28.0314254 23.4778017,28.0089787 C23.5087284,27.9191919 23.3894397,28.0942761 23.4601293,28.026936 C23.5087284,27.9820426 23.5484914,27.9236813 23.5970905,27.8787879 C23.619181,27.8608305 23.6412716,27.8428732 23.6633621,27.8204265 C23.7296336,27.7485971 23.5529095,27.8698092 23.6456897,27.8383838 C23.703125,27.8159371 23.7959052,27.7620651 23.8445043,27.7216611 C23.9196121,27.6632997 23.7252155,27.7441077 23.8224138,27.7306397 C23.8489224,27.7261504 23.8798491,27.708193 23.9063578,27.7037037 C23.9284483,27.694725 24.1405172,27.640853 24.0344828,27.667789 C23.9284483,27.694725 24.0521552,27.667789 24.0830819,27.6632997 C24.1140086,27.6632997 24.1449353,27.6588103 24.1758621,27.6588103 C24.215625,27.6588103 24.2553879,27.6632997 24.299569,27.6632997 C24.4453664,27.667789 24.215625,27.6363636 24.3039871,27.6632997 C24.3746767,27.6857464 24.4586207,27.7171717 24.5293103,27.7261504 C24.6044181,27.7351291 24.4939655,27.7126824 24.4807112,27.7037037 C24.5248922,27.7261504 24.5690733,27.7485971 24.6088362,27.7710438 C24.6397629,27.7890011 24.6706897,27.8204265 24.7060345,27.8338945 C24.7899784,27.8698092 24.5867457,27.7216611 24.7104526,27.8338945 C24.7678879,27.8877666 24.8209052,27.9416386 24.8739224,28 C24.9092672,28.040404 24.9269397,28.1077441 24.8606681,27.9775533 C24.8783405,28.013468 24.9048491,28.040404 24.9225216,28.0763187 C24.9446121,28.1077441 24.9578664,28.1436588 24.9799569,28.1795735 C25.0241379,28.2603816 24.9887931,28.2109989 24.9711207,28.1526375 C24.9976293,28.2379349 25.0197198,28.3277217 25.0462284,28.4130191 C25.0727371,28.4938272 25.0418103,28.3636364 25.0418103,28.3546577 C25.028556,28.4309764 25.0329741,28.4938272 25.0329741,28.5566779 C25.0418103,28.9652076 25.3820043,29.3602694 25.8061422,29.342312 C26.2170259,29.3243547 26.5881466,28.996633 26.5793103,28.5566779 C26.5616379,27.5061728 25.925431,26.5993266 24.9534483,26.2401796 C24.0521552,25.9034792 22.9520474,26.2042649 22.337931,26.9539843 C21.6796336,27.7530864 21.5470905,28.9068462 22.0860991,29.8181818 C22.6206897,30.7250281 23.658944,31.1604938 24.6706897,30.962963 C25.7840517,30.7429854 26.5616379,29.6924804 26.5793103,28.5656566 C26.5881466,28.1526375 26.2170259,27.7620651 25.8061422,27.7800224 C25.3820043,27.7890011 25.0418103,28.1122334 25.0329741,28.5566779 Z" id="Shape"></path>
                        <path d="M18.8653017,23.8114478 C20.1023707,23.2233446 21.3438578,22.6352413 22.5809267,22.0516274 C22.7576509,21.96633 22.9387931,21.8810325 23.1155172,21.8002245 C23.6280172,21.5578002 23.8003233,20.7631874 23.5043103,20.2962963 C23.1641164,19.7575758 22.5720905,19.640853 22.0242457,19.9012346 C20.7871767,20.4893378 19.5456897,21.0774411 18.3086207,21.661055 C18.1318966,21.7463524 17.9507543,21.8316498 17.7740302,21.9124579 C17.2615302,22.1548822 17.0892241,22.9494949 17.3852371,23.4163861 C17.725431,23.9551066 18.3130388,24.0718294 18.8653017,23.8114478 L18.8653017,23.8114478 Z" id="Shape"></path>
                        <path d="M17.7740302,26.7429854 C19.0110991,27.3310887 20.2525862,27.9191919 21.4896552,28.5028058 C21.6663793,28.5881033 21.8475216,28.6734007 22.0242457,28.7542088 C22.29375,28.8799102 22.5632543,28.9472503 22.8592672,28.8664422 C23.1110991,28.7946128 23.3806034,28.5970819 23.5043103,28.359147 C23.7561422,27.8742985 23.6633621,27.1156004 23.1155172,26.8552189 C21.8784483,26.2671156 20.6369612,25.6790123 19.3998922,25.0953984 C19.2231681,25.010101 19.0420259,24.9248036 18.8653017,24.8439955 C18.5957974,24.7182941 18.3262931,24.650954 18.0302802,24.7317621 C17.7784483,24.8035915 17.508944,25.0011223 17.3852371,25.2390572 C17.1289871,25.7239057 17.2261853,26.4826038 17.7740302,26.7429854 L17.7740302,26.7429854 Z" id="Shape"></path>
                        <path d="M8.24418103,24.691358 C8.24418103,26.0830527 7.13523707,27.986532 5.765625,27.986532 C4.39601293,27.986532 3.28706897,26.0830527 3.28706897,24.691358 C3.28706897,23.2996633 4.39601293,22.1683502 5.765625,22.1683502 C7.13523707,22.1683502 8.24418103,23.2996633 8.24418103,24.691358 Z" id="Shape"></path>
                        <path d="M7.47101293,24.691358 C7.47101293,24.7631874 7.49310345,24.956229 7.45334052,25.0145903 C7.49310345,24.9607183 7.47543103,24.8709315 7.45775862,24.9741863 C7.45334052,25.0011223 7.44892241,25.0325477 7.44450431,25.0594837 C7.43125,25.1268238 7.41799569,25.1941639 7.40032328,25.2570146 C7.37381466,25.3737374 7.33846983,25.4859708 7.2987069,25.5982043 C7.27661638,25.6655443 7.25010776,25.7283951 7.22801724,25.7957351 C7.19709052,25.8810325 7.24568966,25.7553311 7.25010776,25.7463524 C7.23243534,25.7822671 7.21918103,25.8226712 7.20150862,25.8585859 C7.08663793,26.1010101 6.94967672,26.3164983 6.80387931,26.5364759 C6.87456897,26.4242424 6.82596983,26.5095398 6.77737069,26.5634119 C6.74202586,26.6083053 6.70226293,26.6531987 6.6625,26.6936027 C6.56971983,26.7923681 6.47252155,26.8776655 6.37532328,26.9674523 C6.46810345,26.8821549 6.42392241,26.9315376 6.35765086,26.976431 C6.31346983,27.0078563 6.26928879,27.0347924 6.22068966,27.0617284 C6.20301724,27.0707071 6.09256466,27.1470258 6.07931034,27.1380471 C6.07931034,27.1380471 6.26487069,27.0707071 6.11907328,27.1200898 C6.08814655,27.1290685 6.05280172,27.1425365 6.021875,27.1560045 C5.97327586,27.1694725 5.92025862,27.1829405 5.87165948,27.1964085 C5.73469828,27.2323232 6.0174569,27.1964085 5.87165948,27.1964085 C5.81864224,27.1964085 5.7700431,27.2008979 5.71702586,27.2008979 C5.69051724,27.2008979 5.66400862,27.1964085 5.6375,27.1964085 C5.54471983,27.2008979 5.80096983,27.2368126 5.66400862,27.1964085 C5.59773707,27.1784512 5.41217672,27.1604938 5.36799569,27.1066218 C5.36357759,27.0976431 5.509375,27.1829405 5.43426724,27.1335578 C5.41217672,27.1200898 5.3856681,27.1111111 5.36357759,27.0976431 C5.30172414,27.0617284 5.23987069,27.0258137 5.17801724,26.9854097 C5.10732759,26.9405163 5.06756466,26.8911336 5.16034483,26.976431 C5.1205819,26.9360269 5.07640086,26.9046016 5.03221983,26.8641975 C4.93943966,26.7789001 4.85549569,26.6891134 4.77596983,26.5903479 C4.73178879,26.5364759 4.65226293,26.4152637 4.73178879,26.5409652 C4.70086207,26.4915825 4.66109914,26.4421998 4.63017241,26.3928171 C4.55948276,26.285073 4.49321121,26.1683502 4.43135776,26.0516274 C4.39601293,25.9887767 4.36508621,25.9259259 4.33415948,25.8630752 C4.30323276,25.8002245 4.26788793,25.701459 4.31648707,25.8271605 C4.26788793,25.7059484 4.2237069,25.5847363 4.18836207,25.4590348 C4.15301724,25.3378227 4.12209052,25.2121212 4.0955819,25.0909091 C4.08674569,25.0460157 4.06023707,24.969697 4.06465517,24.9203143 C4.06465517,24.9158249 4.07790948,25.0819304 4.07349138,24.9921437 C4.07349138,24.956229 4.06465517,24.9203143 4.06465517,24.8843996 C4.05581897,24.7586981 4.06023707,24.6329966 4.06465517,24.5072952 C4.06907328,24.3501684 4.03814655,24.624018 4.06465517,24.4713805 C4.07790948,24.3995511 4.09116379,24.332211 4.10883621,24.2648709 C4.12209052,24.2065095 4.14418103,24.1481481 4.16185345,24.0897868 C4.17068966,24.0628507 4.18394397,24.0359147 4.19278017,24.0044893 C4.15301724,24.1526375 4.16185345,24.0718294 4.18394397,24.026936 C4.24137931,23.9102132 4.30323276,23.8024691 4.36950431,23.694725 C4.38275862,23.667789 4.40484914,23.6453423 4.41810345,23.6228956 C4.41368534,23.627385 4.32532328,23.7306397 4.38717672,23.6632997 C4.43135776,23.6139169 4.47553879,23.5600449 4.51971983,23.5106622 C4.55948276,23.4702581 4.59924569,23.4253648 4.64342672,23.3894501 C4.66551724,23.3714927 4.68760776,23.349046 4.70969828,23.3310887 C4.72737069,23.3176207 4.82898707,23.2457912 4.7450431,23.2996633 C4.66109914,23.3535354 4.81131466,23.2592593 4.83340517,23.2413019 C4.88200431,23.2098765 4.93060345,23.1784512 4.98362069,23.1515152 C5.04547414,23.1200898 5.10290948,23.0886644 5.16918103,23.0617284 C5.02780172,23.1290685 5.16918103,23.0662177 5.23103448,23.0482604 C5.34590517,23.0123457 5.46077586,22.989899 5.58006466,22.962963 C5.66842672,22.9450056 5.53146552,22.9719416 5.52262931,22.9719416 C5.56239224,22.9719416 5.60657328,22.962963 5.64633621,22.962963 C5.71702586,22.9584736 5.79213362,22.9584736 5.86282328,22.962963 C5.93351293,22.9674523 6.09256466,22.9854097 5.92909483,22.9584736 C5.99978448,22.9719416 6.06605603,22.9809203 6.13674569,22.9988777 C6.21185345,23.016835 6.29137931,23.0392817 6.36648707,23.0662177 C6.39299569,23.0751964 6.41950431,23.0886644 6.45043103,23.0976431 C6.39741379,23.0841751 6.34439655,23.0482604 6.42834052,23.0886644 C6.55204741,23.1515152 6.6625,23.2233446 6.78178879,23.295174 C6.81271552,23.3131313 6.89665948,23.3849607 6.76411638,23.2772166 C6.7950431,23.2996633 6.82596983,23.3265993 6.85247845,23.3535354 C6.90107759,23.3984287 6.95409483,23.4478114 6.99827586,23.4927048 C7.046875,23.5420875 7.09105603,23.5914703 7.13523707,23.6453423 C7.14849138,23.6588103 7.19709052,23.7396184 7.14407328,23.6588103 C7.08663793,23.5690236 7.15732759,23.681257 7.16616379,23.6992144 C7.24568966,23.8249158 7.31637931,23.9506173 7.37381466,24.0897868 C7.3075431,23.9461279 7.36939655,24.0897868 7.38706897,24.1526375 C7.40915948,24.2199776 7.4268319,24.2873176 7.44008621,24.3546577 C7.44892241,24.3950617 7.45775862,24.4354658 7.46217672,24.4758698 C7.47984914,24.5701459 7.45775862,24.5072952 7.45775862,24.4489338 C7.46217672,24.5252525 7.47101293,24.6060606 7.47101293,24.691358 C7.47543103,25.0998878 7.82446121,25.4949495 8.24418103,25.4769921 C8.65948276,25.4590348 9.02176724,25.1313131 9.01734914,24.691358 C8.99967672,23.2008979 7.99234914,21.8271605 6.54321121,21.4814815 C5.1205819,21.1402918 3.55657328,21.8092031 2.88502155,23.1515152 C2.23556034,24.4489338 2.51831897,26.0022447 3.29148707,27.1829405 C3.67144397,27.7620651 4.17068966,28.2873176 4.81573276,28.5611672 C5.49170259,28.8484848 6.19418103,28.8215488 6.85247845,28.4983165 C7.51077586,28.1750842 8.03653017,27.5600449 8.38997845,26.9225589 C8.76551724,26.2446689 9.00851293,25.4680135 9.01293103,24.691358 C9.01734914,24.2783389 8.65506466,23.8877666 8.23976293,23.9057239 C7.82446121,23.9236813 7.47543103,24.2514029 7.47101293,24.691358 Z" id="Shape"></path>
                        <path d="M10.7359914,32.372615 L10.7359914,34.3883277 L0.795258621,34.3883277 L0.795258621,32.372615 C0.795258621,30.9450056 1.93071121,29.7643098 3.34008621,29.7643098 L3.93211207,29.7643098 L5.7700431,31.8653199 L7.59471983,29.7643098 L8.19116379,29.7643098 C9.59612069,29.7643098 10.7359914,30.9450056 10.7359914,32.372615 Z" id="Shape"></path>
                        <path d="M9.96282328,32.372615 C9.96282328,33.0460157 9.96282328,33.714927 9.96282328,34.3883277 C10.2190733,34.1279461 10.4797414,33.8630752 10.7359914,33.6026936 C9.6137931,33.6026936 8.49159483,33.6026936 7.36939655,33.6026936 C5.58448276,33.6026936 3.79515086,33.6026936 2.01023707,33.6026936 C1.60377155,33.6026936 1.19730603,33.6026936 0.790840517,33.6026936 C1.04709052,33.8630752 1.30775862,34.1279461 1.56400862,34.3883277 C1.56400862,33.7463524 1.56400862,33.1088664 1.56400862,32.4668911 C1.56400862,32.4354658 1.56400862,32.4040404 1.56400862,32.3771044 C1.56400862,32.345679 1.56400862,32.3097643 1.56400862,32.2783389 C1.56400862,32.2469136 1.56842672,32.2154882 1.56842672,32.1840629 C1.56842672,32.1750842 1.59935345,31.986532 1.57284483,32.1032548 C1.55075431,32.2154882 1.59493534,32 1.60377155,31.9685746 C1.62144397,31.9012346 1.63911638,31.8338945 1.6612069,31.7665544 C1.68329741,31.694725 1.74515086,31.5690236 1.67887931,31.7037037 C1.71422414,31.6318743 1.74515086,31.5600449 1.78491379,31.4927048 C1.82467672,31.4253648 1.86443966,31.3580247 1.90862069,31.295174 C1.98814655,31.1694725 1.83351293,31.3804714 1.9262931,31.2682379 C2.02790948,31.1515152 2.13394397,31.043771 2.25323276,30.9360269 C2.26648707,30.9225589 2.34601293,30.8686869 2.26648707,30.9270483 C2.178125,30.989899 2.28415948,30.9180696 2.30625,30.9046016 C2.36368534,30.8686869 2.42112069,30.8282828 2.47855603,30.7968575 C2.53599138,30.7654321 2.60226293,30.7384961 2.65969828,30.7025814 C2.73038793,30.657688 2.61993534,30.7205387 2.61109914,30.7250281 C2.65528017,30.7070707 2.70387931,30.6891134 2.74806034,30.6756453 C2.83200431,30.6487093 2.91594828,30.6217733 3.00431034,30.6038159 C3.03523707,30.5993266 3.06174569,30.5948373 3.09267241,30.5858586 C3.1987069,30.5589226 2.90711207,30.5993266 3.09709052,30.5858586 C3.1987069,30.5768799 3.29590517,30.5723906 3.39752155,30.5723906 C3.57866379,30.5723906 3.75538793,30.5723906 3.93653017,30.5723906 C3.75538793,30.4960718 3.57424569,30.4197531 3.38868534,30.3434343 C4.00280172,31.043771 4.6125,31.7441077 5.22661638,32.4444444 C5.49170259,32.7497194 6.05721983,32.7497194 6.31788793,32.4444444 C6.92758621,31.7441077 7.53286638,31.043771 8.14256466,30.3434343 C7.96142241,30.4197531 7.78028017,30.4960718 7.59471983,30.5723906 C7.79353448,30.5723906 7.99234914,30.5723906 8.19116379,30.5723906 C8.29278017,30.5723906 8.39439655,30.5813692 8.49601293,30.5903479 C8.39439655,30.5813692 8.40323276,30.5768799 8.49601293,30.5948373 C8.54461207,30.6038159 8.59321121,30.617284 8.64181034,30.630752 C8.73900862,30.657688 8.82737069,30.6936027 8.92015086,30.7250281 C8.73900862,30.6621773 8.91131466,30.7250281 8.94665948,30.7429854 C8.99084052,30.7654321 9.03060345,30.7878788 9.07478448,30.8148148 C9.11454741,30.8372615 9.15872845,30.8641975 9.19849138,30.8911336 C9.21616379,30.9046016 9.353125,30.9988777 9.26034483,30.9315376 C9.16756466,30.8641975 9.30010776,30.962963 9.31778017,30.9809203 C9.353125,31.0123457 9.38846983,31.0482604 9.42381466,31.0796857 C9.49892241,31.1560045 9.56961207,31.2368126 9.63588362,31.3176207 C9.57403017,31.2413019 9.58728448,31.2457912 9.63588362,31.32211 C9.66239224,31.362514 9.68890086,31.4029181 9.71540948,31.4478114 C9.76400862,31.5331089 9.80377155,31.6228956 9.84795259,31.708193 C9.76842672,31.5510662 9.83028017,31.667789 9.84795259,31.7126824 C9.8612069,31.7620651 9.87887931,31.8069585 9.89213362,31.8563412 C9.90980603,31.9147026 9.92306034,31.973064 9.93631466,32.0314254 C9.94073276,32.0538721 9.97607759,32.2244669 9.95398707,32.1077441 C9.93189655,31.9910213 9.95840517,32.1750842 9.95840517,32.1885522 C9.96282328,32.2469136 9.96282328,32.3097643 9.96282328,32.372615 C9.96724138,32.7811448 10.3162716,33.1762065 10.7359914,33.1582492 C11.1512931,33.1402918 11.5135776,32.8125701 11.5091595,32.372615 C11.487069,30.5185185 10.0070043,29.0190797 8.18674569,29.0011223 C7.99234914,29.0011223 7.79353448,28.9921437 7.59913793,29.0011223 C7.3075431,29.0145903 7.11756466,29.1537598 6.94084052,29.35578 C6.62715517,29.7194164 6.30905172,30.0830527 5.99536638,30.4466891 C5.73911638,30.7429854 5.48286638,31.0347924 5.23103448,31.3310887 C5.59331897,31.3310887 5.96002155,31.3310887 6.32230603,31.3310887 C5.98211207,30.9405163 5.6419181,30.5544332 5.30172414,30.1638608 C5.08965517,29.9214366 4.8731681,29.674523 4.66109914,29.4320988 C4.44019397,29.1806958 4.23696121,29.010101 3.86584052,29.0011223 C3.46821121,28.9921437 3.075,28.996633 2.68178879,29.0684624 C2.09859914,29.1762065 1.56400862,29.4769921 1.12219828,29.8675645 C0.37112069,30.5319865 0.0220905172,31.5106622 0.0220905172,32.5028058 C0.0220905172,33.1313131 0.0220905172,33.7598204 0.0220905172,34.3883277 C0.0220905172,34.8148148 0.375538793,35.1739618 0.795258621,35.1739618 C1.9174569,35.1739618 3.03965517,35.1739618 4.16185345,35.1739618 C5.94676724,35.1739618 7.73609914,35.1739618 9.52101293,35.1739618 C9.92747845,35.1739618 10.333944,35.1739618 10.7404095,35.1739618 C11.1601293,35.1739618 11.5135776,34.8148148 11.5135776,34.3883277 C11.5135776,33.714927 11.5135776,33.0460157 11.5135776,32.372615 C11.5135776,31.959596 11.1601293,31.5690236 10.7404095,31.5869809 C10.3162716,31.6049383 9.96282328,31.9326599 9.96282328,32.372615 Z" id="Shape"></path>
                        <path d="M37.0060345,24.691358 C37.0060345,26.0830527 35.8970905,27.986532 34.5230603,27.986532 C33.1534483,27.986532 32.0445043,26.0830527 32.0445043,24.691358 C32.0445043,23.2996633 33.1534483,22.1683502 34.5230603,22.1683502 C35.8970905,22.1683502 37.0060345,23.2996633 37.0060345,24.691358 Z" id="Shape"></path>
                        <path d="M36.2328664,24.691358 C36.2328664,24.7631874 36.2549569,24.956229 36.215194,25.0145903 C36.2549569,24.9607183 36.2372845,24.8709315 36.2196121,24.9741863 C36.215194,25.0011223 36.2107759,25.0325477 36.2063578,25.0594837 C36.1931034,25.1268238 36.1798491,25.1941639 36.1621767,25.2570146 C36.1356681,25.3737374 36.1003233,25.4859708 36.0605603,25.5982043 C36.0384698,25.6655443 36.0119612,25.7283951 35.9898707,25.7957351 C35.958944,25.8810325 36.0075431,25.7553311 36.0119612,25.7463524 C35.9942888,25.7822671 35.9810345,25.8226712 35.9633621,25.8585859 C35.8484914,26.1010101 35.7115302,26.3164983 35.5657328,26.5364759 C35.6364224,26.4242424 35.5878233,26.5095398 35.5392241,26.5634119 C35.5038793,26.6083053 35.4641164,26.6531987 35.4243534,26.6936027 C35.3315733,26.7923681 35.234375,26.8776655 35.1371767,26.9674523 C35.2299569,26.8821549 35.1857759,26.9315376 35.1195043,26.976431 C35.0753233,27.0078563 35.0311422,27.0347924 34.9825431,27.0617284 C34.9648707,27.0707071 34.8544181,27.1470258 34.8411638,27.1380471 C34.8411638,27.1380471 35.0267241,27.0707071 34.8809267,27.1200898 C34.85,27.1290685 34.8146552,27.1425365 34.7837284,27.1560045 C34.7351293,27.1694725 34.6821121,27.1829405 34.6335129,27.1964085 C34.4965517,27.2323232 34.7793103,27.1964085 34.6335129,27.1964085 C34.5804957,27.1964085 34.5318966,27.2008979 34.4788793,27.2008979 C34.4523707,27.2008979 34.4258621,27.1964085 34.3993534,27.1964085 C34.3065733,27.2008979 34.5628233,27.2368126 34.4258621,27.1964085 C34.3595905,27.1784512 34.1740302,27.1604938 34.1298491,27.1066218 C34.125431,27.0976431 34.2712284,27.1829405 34.1961207,27.1335578 C34.1740302,27.1200898 34.1475216,27.1111111 34.125431,27.0976431 C34.0635776,27.0617284 34.0017241,27.0258137 33.9398707,26.9854097 C33.869181,26.9405163 33.8294181,26.8911336 33.9221983,26.976431 C33.8824353,26.9360269 33.8382543,26.9046016 33.7940733,26.8641975 C33.7012931,26.7789001 33.6173491,26.6891134 33.5378233,26.5903479 C33.4936422,26.5364759 33.4141164,26.4152637 33.4936422,26.5409652 C33.4627155,26.4915825 33.4229526,26.4421998 33.3920259,26.3928171 C33.3213362,26.285073 33.2550647,26.1683502 33.1932112,26.0516274 C33.1578664,25.9887767 33.1269397,25.9259259 33.0960129,25.8630752 C33.0650862,25.8002245 33.0297414,25.701459 33.0783405,25.8271605 C33.0297414,25.7059484 32.9855603,25.5847363 32.9502155,25.4590348 C32.9148707,25.3378227 32.883944,25.2121212 32.8574353,25.0909091 C32.8485991,25.0460157 32.8220905,24.969697 32.8265086,24.9203143 C32.8265086,24.9158249 32.8397629,25.0819304 32.8353448,24.9921437 C32.8353448,24.956229 32.8265086,24.9203143 32.8265086,24.8843996 C32.8176724,24.7586981 32.8220905,24.6329966 32.8265086,24.5072952 C32.8309267,24.3501684 32.8,24.624018 32.8265086,24.4713805 C32.8397629,24.3995511 32.8530172,24.332211 32.8706897,24.2648709 C32.883944,24.2065095 32.9060345,24.1481481 32.9237069,24.0897868 C32.9325431,24.0628507 32.9457974,24.0359147 32.9546336,24.0044893 C32.9148707,24.1526375 32.9237069,24.0718294 32.9457974,24.026936 C33.0032328,23.9102132 33.0650862,23.8024691 33.1313578,23.694725 C33.1446121,23.667789 33.1667026,23.6453423 33.1799569,23.6228956 C33.1755388,23.627385 33.0871767,23.7306397 33.1490302,23.6632997 C33.1932112,23.6139169 33.2373922,23.5600449 33.2815733,23.5106622 C33.3213362,23.4702581 33.3610991,23.4253648 33.4052802,23.3894501 C33.4273707,23.3714927 33.4494612,23.349046 33.4715517,23.3310887 C33.4892241,23.3176207 33.5908405,23.2457912 33.5068966,23.2996633 C33.4229526,23.3535354 33.5731681,23.2592593 33.5952586,23.2413019 C33.6438578,23.2098765 33.6924569,23.1784512 33.7454741,23.1515152 C33.8073276,23.1200898 33.8647629,23.0886644 33.9310345,23.0617284 C33.7896552,23.1290685 33.9310345,23.0662177 33.9928879,23.0482604 C34.1077586,23.0123457 34.2226293,22.989899 34.3419181,22.962963 C34.4302802,22.9450056 34.293319,22.9719416 34.2844828,22.9719416 C34.3242457,22.9719416 34.3684267,22.962963 34.4081897,22.962963 C34.4788793,22.9584736 34.5539871,22.9584736 34.6246767,22.962963 C34.6953664,22.9674523 34.8544181,22.9854097 34.6909483,22.9584736 C34.7616379,22.9719416 34.8279095,22.9809203 34.8985991,22.9988777 C34.9737069,23.016835 35.0532328,23.0392817 35.1283405,23.0662177 C35.1548491,23.0751964 35.1813578,23.0886644 35.2122845,23.0976431 C35.1592672,23.0841751 35.10625,23.0482604 35.190194,23.0886644 C35.3139009,23.1515152 35.4243534,23.2233446 35.5436422,23.295174 C35.574569,23.3131313 35.6585129,23.3849607 35.5259698,23.2772166 C35.5568966,23.2996633 35.5878233,23.3265993 35.6143319,23.3535354 C35.662931,23.3984287 35.7159483,23.4478114 35.7601293,23.4927048 C35.8087284,23.5420875 35.8529095,23.5914703 35.8970905,23.6453423 C35.9103448,23.6588103 35.958944,23.7396184 35.9059267,23.6588103 C35.8484914,23.5690236 35.919181,23.681257 35.9280172,23.6992144 C36.0075431,23.8249158 36.0782328,23.9506173 36.1356681,24.0897868 C36.0693966,23.9461279 36.13125,24.0897868 36.1489224,24.1526375 C36.1710129,24.2199776 36.1886853,24.2873176 36.2019397,24.3546577 C36.2107759,24.3950617 36.2196121,24.4354658 36.2240302,24.4758698 C36.2417026,24.5701459 36.2196121,24.5072952 36.2196121,24.4489338 C36.2240302,24.5252525 36.2328664,24.6060606 36.2328664,24.691358 C36.2372845,25.0998878 36.5863147,25.4949495 37.0060345,25.4769921 C37.4213362,25.4590348 37.7836207,25.1313131 37.7792026,24.691358 C37.7615302,23.2008979 36.7542026,21.8271605 35.3050647,21.4814815 C33.8824353,21.1402918 32.3184267,21.8092031 31.646875,23.1515152 C30.9974138,24.4489338 31.2801724,26.0022447 32.0533405,27.1829405 C32.4332974,27.7620651 32.9325431,28.2873176 33.5775862,28.5611672 C34.253556,28.8484848 34.9560345,28.8215488 35.6143319,28.4983165 C36.2726293,28.1750842 36.7983836,27.5600449 37.1518319,26.9225589 C37.5273707,26.2446689 37.7703664,25.4680135 37.7747845,24.691358 C37.7792026,24.2783389 37.4169181,23.8877666 37.0016164,23.9057239 C36.5863147,23.9236813 36.2372845,24.2514029 36.2328664,24.691358 Z" id="Shape"></path>
                        <path d="M39.4978448,32.372615 L39.4978448,34.3883277 L29.5571121,34.3883277 L29.5571121,32.372615 C29.5571121,30.9450056 30.6925647,29.7643098 32.1019397,29.7643098 L32.6939655,29.7643098 L34.5318966,31.8653199 L36.3565733,29.7643098 L36.9530172,29.7643098 C38.3579741,29.7643098 39.4978448,30.9450056 39.4978448,32.372615 Z" id="Shape"></path>
                        <path d="M38.7246767,32.372615 C38.7246767,33.0460157 38.7246767,33.714927 38.7246767,34.3883277 C38.9809267,34.1279461 39.2415948,33.8630752 39.4978448,33.6026936 C38.3756466,33.6026936 37.2534483,33.6026936 36.13125,33.6026936 C34.3463362,33.6026936 32.5570043,33.6026936 30.7720905,33.6026936 C30.365625,33.6026936 29.9591595,33.6026936 29.552694,33.6026936 C29.808944,33.8630752 30.0696121,34.1279461 30.3258621,34.3883277 C30.3258621,33.7463524 30.3258621,33.1088664 30.3258621,32.4668911 C30.3258621,32.4354658 30.3258621,32.4040404 30.3258621,32.3771044 C30.3258621,32.345679 30.3258621,32.3097643 30.3258621,32.2783389 C30.3258621,32.2469136 30.3302802,32.2154882 30.3302802,32.1840629 C30.3302802,32.1750842 30.3612069,31.986532 30.3346983,32.1032548 C30.3126078,32.2154882 30.3567888,32 30.365625,31.9685746 C30.3832974,31.9012346 30.4009698,31.8338945 30.4230603,31.7665544 C30.4451509,31.694725 30.5070043,31.5690236 30.4407328,31.7037037 C30.4760776,31.6318743 30.5070043,31.5600449 30.5467672,31.4927048 C30.5865302,31.4253648 30.6262931,31.3580247 30.6704741,31.295174 C30.75,31.1694725 30.5953664,31.3804714 30.6881466,31.2682379 C30.7897629,31.1515152 30.8957974,31.043771 31.0150862,30.9360269 C31.0283405,30.9225589 31.1078664,30.8686869 31.0283405,30.9270483 C30.9399784,30.989899 31.0460129,30.9180696 31.0681034,30.9046016 C31.1255388,30.8686869 31.1829741,30.8282828 31.2404095,30.7968575 C31.2978448,30.7654321 31.3641164,30.7384961 31.4215517,30.7025814 C31.4922414,30.657688 31.3817888,30.7205387 31.3729526,30.7250281 C31.4171336,30.7070707 31.4657328,30.6891134 31.5099138,30.6756453 C31.5938578,30.6487093 31.6778017,30.6217733 31.7661638,30.6038159 C31.7970905,30.5993266 31.8235991,30.5948373 31.8545259,30.5858586 C31.9605603,30.5589226 31.6689655,30.5993266 31.858944,30.5858586 C31.9605603,30.5768799 32.0577586,30.5723906 32.159375,30.5723906 C32.3405172,30.5723906 32.5172414,30.5723906 32.6983836,30.5723906 C32.5172414,30.4960718 32.3360991,30.4197531 32.1505388,30.3434343 C32.7646552,31.043771 33.3743534,31.7441077 33.9884698,32.4444444 C34.253556,32.7497194 34.8190733,32.7497194 35.0797414,32.4444444 C35.6894397,31.7441077 36.2947198,31.043771 36.9044181,30.3434343 C36.7232759,30.4197531 36.5421336,30.4960718 36.3565733,30.5723906 C36.5553879,30.5723906 36.7542026,30.5723906 36.9530172,30.5723906 C37.0546336,30.5723906 37.15625,30.5813692 37.2578664,30.5903479 C37.15625,30.5813692 37.1650862,30.5768799 37.2578664,30.5948373 C37.3064655,30.6038159 37.3550647,30.617284 37.4036638,30.630752 C37.5008621,30.657688 37.5892241,30.6936027 37.6820043,30.7250281 C37.5008621,30.6621773 37.6731681,30.7250281 37.7085129,30.7429854 C37.752694,30.7654321 37.7924569,30.7878788 37.8366379,30.8148148 C37.8764009,30.8372615 37.9205819,30.8641975 37.9603448,30.8911336 C37.9780172,30.9046016 38.1149784,30.9988777 38.0221983,30.9315376 C37.9294181,30.8641975 38.0619612,30.962963 38.0796336,30.9809203 C38.1149784,31.0123457 38.1503233,31.0482604 38.1856681,31.0796857 C38.2607759,31.1560045 38.3314655,31.2368126 38.3977371,31.3176207 C38.3358836,31.2413019 38.3491379,31.2457912 38.3977371,31.32211 C38.4242457,31.362514 38.4507543,31.4029181 38.4772629,31.4478114 C38.5258621,31.5331089 38.565625,31.6228956 38.609806,31.708193 C38.5302802,31.5510662 38.5921336,31.667789 38.609806,31.7126824 C38.6230603,31.7620651 38.6407328,31.8069585 38.6539871,31.8563412 C38.6716595,31.9147026 38.6849138,31.973064 38.6981681,32.0314254 C38.7025862,32.0538721 38.737931,32.2244669 38.7158405,32.1077441 C38.69375,31.9910213 38.7202586,32.1750842 38.7202586,32.1885522 C38.7246767,32.2469136 38.7246767,32.3097643 38.7246767,32.372615 C38.7290948,32.7811448 39.078125,33.1762065 39.4978448,33.1582492 C39.9131466,33.1402918 40.275431,32.8125701 40.2710129,32.372615 C40.2489224,30.5185185 38.7688578,29.0190797 36.9485991,29.0011223 C36.7542026,29.0011223 36.5553879,28.9921437 36.3609914,29.0011223 C36.0693966,29.0145903 35.8794181,29.1537598 35.702694,29.35578 C35.3890086,29.7194164 35.0709052,30.0830527 34.7572198,30.4466891 C34.5009698,30.7429854 34.2447198,31.0347924 33.9928879,31.3310887 C34.3551724,31.3310887 34.721875,31.3310887 35.0841595,31.3310887 C34.7439655,30.9405163 34.4037716,30.5544332 34.0635776,30.1638608 C33.8515086,29.9214366 33.6350216,29.674523 33.4229526,29.4320988 C33.2020474,29.1806958 32.9988147,29.010101 32.627694,29.0011223 C32.2300647,28.9921437 31.8368534,28.996633 31.4436422,29.0684624 C30.8604526,29.1762065 30.3258621,29.4769921 29.8840517,29.8675645 C29.1329741,30.5319865 28.783944,31.5106622 28.783944,32.5028058 C28.783944,33.1313131 28.783944,33.7598204 28.783944,34.3883277 C28.783944,34.8148148 29.1373922,35.1739618 29.5571121,35.1739618 C30.6793103,35.1739618 31.8015086,35.1739618 32.9237069,35.1739618 C34.7086207,35.1739618 36.4979526,35.1739618 38.2828664,35.1739618 C38.6893319,35.1739618 39.0957974,35.1739618 39.5022629,35.1739618 C39.9219828,35.1739618 40.275431,34.8148148 40.275431,34.3883277 C40.275431,33.714927 40.275431,33.0460157 40.275431,32.372615 C40.275431,31.959596 39.9219828,31.5690236 39.5022629,31.5869809 C39.078125,31.6049383 38.7246767,31.9326599 38.7246767,32.372615 Z" id="Shape"></path>
                        <path d="M22.6251078,3.32210999 C22.6251078,4.71380471 21.5161638,6.61728395 20.1465517,6.61728395 C18.7769397,6.61728395 17.6679957,4.71380471 17.6679957,3.32210999 C17.6679957,1.93041526 18.7769397,0.799102132 20.1465517,0.799102132 C21.5161638,0.799102132 22.6251078,1.93041526 22.6251078,3.32210999 Z" id="Shape"></path>
                        <path d="M21.8519397,3.32210999 C21.8519397,3.39393939 21.8740302,3.58698092 21.8342672,3.64534231 C21.8740302,3.59147026 21.8563578,3.5016835 21.8386853,3.60493827 C21.8342672,3.6318743 21.8298491,3.66329966 21.825431,3.69023569 C21.8121767,3.75757576 21.7989224,3.82491582 21.78125,3.88776655 C21.7547414,4.00448934 21.7193966,4.11672278 21.6796336,4.22895623 C21.6575431,4.2962963 21.6310345,4.35914703 21.608944,4.42648709 C21.5780172,4.51178451 21.6266164,4.38608305 21.6310345,4.37710438 C21.6133621,4.41301908 21.6001078,4.45342312 21.5824353,4.48933782 C21.4675647,4.73176207 21.3306034,4.94725028 21.184806,5.16722783 C21.2554957,5.05499439 21.2068966,5.14029181 21.1582974,5.19416386 C21.1229526,5.23905724 21.0831897,5.28395062 21.0434267,5.32435466 C20.9506466,5.42312009 20.8534483,5.50841751 20.75625,5.59820426 C20.8490302,5.51290685 20.8048491,5.56228956 20.7385776,5.60718294 C20.6943966,5.63860831 20.6502155,5.66554433 20.6016164,5.69248036 C20.583944,5.70145903 20.4734914,5.77777778 20.4602371,5.7687991 C20.4602371,5.7687991 20.6457974,5.70145903 20.5,5.75084175 C20.4690733,5.75982043 20.4337284,5.77328844 20.4028017,5.78675645 C20.3542026,5.80022447 20.3011853,5.81369248 20.2525862,5.82716049 C20.115625,5.8630752 20.3983836,5.82716049 20.2525862,5.82716049 C20.199569,5.82716049 20.1509698,5.83164983 20.0979526,5.83164983 C20.071444,5.83164983 20.0449353,5.82716049 20.0184267,5.82716049 C19.9256466,5.83164983 20.1818966,5.86756453 20.0449353,5.82716049 C19.9786638,5.80920314 19.7931034,5.79124579 19.7489224,5.73737374 C19.7445043,5.72839506 19.8903017,5.81369248 19.815194,5.76430976 C19.7931034,5.75084175 19.7665948,5.74186308 19.7445043,5.72839506 C19.6826509,5.69248036 19.6207974,5.65656566 19.558944,5.61616162 C19.4882543,5.57126824 19.4484914,5.52188552 19.5412716,5.60718294 C19.5015086,5.5667789 19.4573276,5.53535354 19.4131466,5.49494949 C19.3203664,5.40965208 19.2364224,5.31986532 19.1568966,5.22109989 C19.1127155,5.16722783 19.0331897,5.04601571 19.1127155,5.17171717 C19.0817888,5.12233446 19.0420259,5.07295174 19.0110991,5.02356902 C18.9404095,4.91582492 18.8741379,4.79910213 18.8122845,4.68237935 C18.7769397,4.61952862 18.7460129,4.55667789 18.7150862,4.49382716 C18.6841595,4.43097643 18.6488147,4.332211 18.6974138,4.45791246 C18.6488147,4.33670034 18.6046336,4.21548822 18.5692888,4.08978676 C18.533944,3.96857464 18.5030172,3.84287318 18.4765086,3.72166105 C18.4676724,3.67676768 18.4411638,3.60044893 18.4455819,3.55106622 C18.4455819,3.54657688 18.4588362,3.71268238 18.4544181,3.62289562 C18.4544181,3.58698092 18.4455819,3.55106622 18.4455819,3.51515152 C18.4367457,3.38945006 18.4411638,3.2637486 18.4455819,3.13804714 C18.45,2.98092031 18.4190733,3.25476992 18.4455819,3.10213244 C18.4588362,3.03030303 18.4720905,2.96296296 18.4897629,2.8956229 C18.5030172,2.8372615 18.5251078,2.77890011 18.5427802,2.72053872 C18.5516164,2.69360269 18.5648707,2.66666667 18.5737069,2.6352413 C18.533944,2.78338945 18.5427802,2.70258137 18.5648707,2.65768799 C18.622306,2.54096521 18.6841595,2.4332211 18.750431,2.32547699 C18.7636853,2.29854097 18.7857759,2.27609428 18.7990302,2.25364759 C18.7946121,2.25813692 18.70625,2.36139169 18.7681034,2.29405163 C18.8122845,2.24466891 18.8564655,2.19079686 18.9006466,2.14141414 C18.9404095,2.1010101 18.9801724,2.05611672 19.0243534,2.02020202 C19.046444,2.00224467 19.0685345,1.97979798 19.090625,1.96184063 C19.1082974,1.94837262 19.2099138,1.87654321 19.1259698,1.93041526 C19.0420259,1.98428732 19.1922414,1.89001122 19.2143319,1.87205387 C19.262931,1.84062851 19.3115302,1.80920314 19.3645474,1.78226712 C19.4264009,1.75084175 19.4838362,1.71941639 19.5501078,1.69248036 C19.4087284,1.75982043 19.5501078,1.6969697 19.6119612,1.67901235 C19.7268319,1.64309764 19.8417026,1.62065095 19.9609914,1.59371493 C20.0493534,1.57575758 19.9123922,1.6026936 19.9079741,1.6026936 C19.9477371,1.6026936 19.9919181,1.59371493 20.031681,1.59371493 C20.1023707,1.58922559 20.1774784,1.58922559 20.2481681,1.59371493 C20.3188578,1.59820426 20.4779095,1.61616162 20.3144397,1.58922559 C20.3851293,1.6026936 20.4514009,1.61167228 20.5220905,1.62962963 C20.5971983,1.64758698 20.6767241,1.67003367 20.7518319,1.6969697 C20.7783405,1.70594837 20.8048491,1.71941639 20.8357759,1.72839506 C20.7827586,1.71492705 20.7297414,1.67901235 20.8136853,1.71941639 C20.9373922,1.78226712 21.0478448,1.85409652 21.1671336,1.92592593 C21.1980603,1.94388328 21.2820043,2.01571268 21.1494612,1.90796857 C21.1803879,1.93041526 21.2113147,1.95735129 21.2378233,1.98428732 C21.2908405,2.0291807 21.3394397,2.07856341 21.3836207,2.12345679 C21.4322198,2.17283951 21.4764009,2.22222222 21.5205819,2.27609428 C21.5338362,2.28956229 21.5824353,2.37037037 21.5294181,2.28956229 C21.4719828,2.19977553 21.5426724,2.31200898 21.5515086,2.32996633 C21.6310345,2.45566779 21.7017241,2.58136925 21.7591595,2.72053872 C21.6928879,2.57687991 21.7547414,2.72053872 21.7724138,2.78338945 C21.7945043,2.85072952 21.8121767,2.91806958 21.825431,2.98540965 C21.8342672,3.02581369 21.8431034,3.06621773 21.8475216,3.10662177 C21.865194,3.20089787 21.8431034,3.13804714 21.8431034,3.07968575 C21.8431034,3.15600449 21.8519397,3.23681257 21.8519397,3.32210999 C21.8563578,3.73063973 22.2053879,4.12570146 22.6251078,4.10774411 C23.0404095,4.08978676 23.402694,3.7620651 23.3982759,3.32210999 C23.3806034,1.83164983 22.3732759,0.457912458 20.9241379,0.112233446 C19.5015086,-0.228956229 17.9375,0.439955107 17.2659483,1.78226712 C16.6164871,3.07968575 16.8992457,4.63299663 17.6724138,5.81369248 C18.0523707,6.39281706 18.5516164,6.91806958 19.1966595,7.19191919 C19.8726293,7.47923681 20.5751078,7.45230079 21.2334052,7.12906846 C21.8917026,6.80583614 22.4174569,6.19079686 22.7709052,5.55331089 C23.146444,4.87542088 23.3894397,4.09876543 23.3938578,3.32210999 C23.3982759,2.90909091 23.0359914,2.51851852 22.6206897,2.53647587 C22.2053879,2.55443322 21.8563578,2.88215488 21.8519397,3.32210999 Z" id="Shape"></path>
                        <path d="M25.1390086,11.003367 L25.1390086,13.0190797 L15.1540948,13.0190797 L15.1540948,11.003367 C15.1540948,9.57575758 16.3116379,8.39506173 17.7210129,8.39506173 L18.3174569,8.39506173 L20.1553879,10.4960718 L21.9800647,8.39506173 L22.5765086,8.39506173 C23.9770474,8.39506173 25.1390086,9.57575758 25.1390086,11.003367 Z" id="Shape"></path>
                        <path d="M24.34375,11.003367 C24.34375,11.6767677 24.34375,12.345679 24.34375,13.0190797 C24.6,12.7586981 24.8606681,12.4938272 25.1169181,12.2334456 C23.9947198,12.2334456 22.8725216,12.2334456 21.7503233,12.2334456 C19.9654095,12.2334456 18.1760776,12.2334456 16.3911638,12.2334456 C15.9846983,12.2334456 15.5782328,12.2334456 15.1717672,12.2334456 C15.4280172,12.4938272 15.6886853,12.7586981 15.9449353,13.0190797 C15.9449353,12.3771044 15.9449353,11.7396184 15.9449353,11.0976431 C15.9449353,11.0662177 15.9449353,11.0347924 15.9449353,11.0078563 C15.9449353,10.976431 15.9449353,10.9405163 15.9449353,10.9090909 C15.9449353,10.8776655 15.9493534,10.8462402 15.9493534,10.8148148 C15.9493534,10.8058361 15.9802802,10.617284 15.9537716,10.7340067 C15.931681,10.8462402 15.9758621,10.630752 15.9846983,10.5993266 C16.0023707,10.5319865 16.0200431,10.4646465 16.0421336,10.3973064 C16.0642241,10.325477 16.1260776,10.1997755 16.059806,10.3344557 C16.0951509,10.2626263 16.1260776,10.1907969 16.1658405,10.1234568 C16.2056034,10.0561167 16.2453664,9.98877666 16.2895474,9.92592593 C16.3690733,9.80022447 16.2144397,10.0112233 16.3072198,9.8989899 C16.4088362,9.78226712 16.5148707,9.67452301 16.6341595,9.5667789 C16.6474138,9.55331089 16.7269397,9.49943883 16.6474138,9.55780022 C16.5590517,9.62065095 16.6650862,9.54882155 16.6871767,9.53535354 C16.7446121,9.49943883 16.8020474,9.45903479 16.8594828,9.42760943 C16.9169181,9.39618406 16.9831897,9.36924804 17.040625,9.33333333 C17.1113147,9.28843996 17.0008621,9.35129068 16.9920259,9.35578002 C17.0362069,9.33782267 17.084806,9.31986532 17.1289871,9.30639731 C17.212931,9.27946128 17.296875,9.25252525 17.3852371,9.2345679 C17.4161638,9.23007856 17.4426724,9.22558923 17.4735991,9.21661055 C17.5796336,9.18967452 17.2880388,9.23007856 17.4780172,9.21661055 C17.5796336,9.20763187 17.6768319,9.20314254 17.7784483,9.20314254 C17.9595905,9.20314254 18.1363147,9.20314254 18.3174569,9.20314254 C18.1363147,9.12682379 17.9551724,9.05050505 17.7696121,8.97418631 C18.3837284,9.67452301 18.9934267,10.3748597 19.6075431,11.0751964 C19.8726293,11.3804714 20.4381466,11.3804714 20.6988147,11.0751964 C21.3085129,10.3748597 21.9137931,9.67452301 22.5234914,8.97418631 C22.3423491,9.05050505 22.1612069,9.12682379 21.9756466,9.20314254 C22.1744612,9.20314254 22.3732759,9.20314254 22.5720905,9.20314254 C22.6737069,9.20314254 22.7753233,9.21212121 22.8769397,9.22109989 C22.7753233,9.21212121 22.7841595,9.20763187 22.8769397,9.22558923 C22.9255388,9.2345679 22.9741379,9.24803591 23.0227371,9.26150393 C23.1199353,9.28843996 23.2082974,9.32435466 23.3010776,9.35578002 C23.1199353,9.29292929 23.2922414,9.35578002 23.3275862,9.37373737 C23.3717672,9.39618406 23.4115302,9.41863075 23.4557112,9.44556678 C23.4954741,9.46801347 23.5396552,9.49494949 23.5794181,9.52188552 C23.5970905,9.53535354 23.7340517,9.62962963 23.6412716,9.56228956 C23.5484914,9.49494949 23.6810345,9.59371493 23.6987069,9.61167228 C23.7340517,9.64309764 23.7693966,9.67901235 23.8047414,9.71043771 C23.8798491,9.78675645 23.9505388,9.86756453 24.0168103,9.94837262 C23.9549569,9.87205387 23.9682112,9.87654321 24.0168103,9.95286195 C24.043319,9.99326599 24.0698276,10.03367 24.0963362,10.0785634 C24.1449353,10.1638608 24.1846983,10.2536476 24.2288793,10.338945 C24.1493534,10.1818182 24.2112069,10.298541 24.2288793,10.3434343 C24.2421336,10.3928171 24.259806,10.4377104 24.2730603,10.4870932 C24.2907328,10.5454545 24.3039871,10.6038159 24.3172414,10.6621773 C24.3216595,10.684624 24.3570043,10.8552189 24.3349138,10.7384961 C24.3128233,10.6217733 24.3393319,10.8058361 24.3393319,10.8193042 C24.34375,10.8776655 24.34375,10.9405163 24.34375,11.003367 C24.3481681,11.4118967 24.6971983,11.8069585 25.1169181,11.7890011 C25.5322198,11.7710438 25.8945043,11.4433221 25.8900862,11.003367 C25.8679957,9.14927048 24.387931,7.64983165 22.5676724,7.6318743 C22.3732759,7.6318743 22.1744612,7.62289562 21.9800647,7.6318743 C21.6884698,7.64534231 21.4984914,7.78451178 21.3217672,7.98653199 C21.0080819,8.35016835 20.6899784,8.71380471 20.3762931,9.07744108 C20.1200431,9.37373737 19.8637931,9.66554433 19.6119612,9.96184063 C19.9742457,9.96184063 20.3409483,9.96184063 20.7032328,9.96184063 C20.3630388,9.57126824 20.0228448,9.18518519 19.6826509,8.79461279 C19.4705819,8.55218855 19.2540948,8.30527497 19.0420259,8.06285073 C18.8211207,7.81144781 18.6178879,7.64085297 18.2467672,7.6318743 C17.8491379,7.62289562 17.4559267,7.62738496 17.0627155,7.69921437 C16.4795259,7.80695847 15.9449353,8.10774411 15.503125,8.4983165 C14.7520474,9.1627385 14.4030172,10.1414141 14.4030172,11.1335578 C14.4030172,11.7620651 14.4030172,12.3905724 14.4030172,13.0190797 C14.4030172,13.4455668 14.7564655,13.8047138 15.1761853,13.8047138 C16.2983836,13.8047138 17.4205819,13.8047138 18.5427802,13.8047138 C20.327694,13.8047138 22.1170259,13.8047138 23.9019397,13.8047138 C24.3084052,13.8047138 24.7148707,13.8047138 25.1213362,13.8047138 C25.541056,13.8047138 25.8945043,13.4455668 25.8945043,13.0190797 C25.8945043,12.345679 25.8945043,11.6767677 25.8945043,11.003367 C25.8945043,10.5903479 25.541056,10.1997755 25.1213362,10.2177329 C24.6971983,10.2356902 24.34375,10.5634119 24.34375,11.003367 Z" id="Shape"></path>
                        <path d="M5.7700431,19.7575758 C5.96002155,18.8686869 6.22068966,17.9977553 6.55204741,17.1537598 C6.57413793,17.0998878 6.59622845,17.0505051 6.61390086,16.996633 C6.67133621,16.8529742 6.50344828,17.2570146 6.59622845,17.0415264 C6.64040948,16.9382716 6.68459052,16.8350168 6.72877155,16.7362514 C6.82155172,16.5342312 6.9143319,16.332211 7.01594828,16.1301908 C7.21476293,15.7306397 7.43125,15.3445567 7.66099138,14.962963 C7.89073276,14.5858586 8.13814655,14.2177329 8.39881466,13.8585859 C8.42974138,13.8136925 8.46508621,13.7687991 8.49601293,13.7239057 C8.54461207,13.6565657 8.65506466,13.5667789 8.46508621,13.7598204 C8.53135776,13.687991 8.5887931,13.6026936 8.64622845,13.5263749 C8.79202586,13.3468013 8.93782328,13.1672278 9.08803879,12.9921437 C9.66681034,12.3277217 10.2985991,11.7126824 10.974569,11.1560045 C11.0099138,11.1290685 11.0408405,11.1021324 11.0761853,11.0707071 C11.102694,11.0482604 11.3235991,10.8686869 11.1733836,10.9943883 C11.0275862,11.1156004 11.1998922,10.976431 11.2219828,10.9584736 C11.275,10.9180696 11.3280172,10.8776655 11.3810345,10.8417508 C11.575431,10.698092 11.7742457,10.5589226 11.9730603,10.4242424 C12.3927802,10.1414141 12.8257543,9.88103255 13.2719828,9.63860831 C13.7712284,9.3647587 13.9700431,8.61952862 13.6607759,8.13468013 C13.3338362,7.61840629 12.7153017,7.44781145 12.1807112,7.73961841 C8.89364224,9.5308642 6.18976293,12.4713805 4.71411638,15.959596 C4.27672414,16.996633 3.91885776,18.0606061 3.68028017,19.1694725 C3.56099138,19.7306397 3.84375,20.3860831 4.43577586,20.5207632 C4.98362069,20.650954 5.6419181,20.359147 5.7700431,19.7575758 L5.7700431,19.7575758 Z" id="Shape"></path>
                        <path d="M27.1227371,35.9775533 C26.6897629,36.2154882 26.2346983,36.4713805 25.7707974,36.6419753 C26.0668103,36.5342312 25.6824353,36.67789 25.6117457,36.704826 C25.4924569,36.7497194 25.3775862,36.7991021 25.2582974,36.8395062 C25.0197198,36.9292929 24.7811422,37.010101 24.5381466,37.0864198 C24.0521552,37.2390572 23.5573276,37.369248 23.0536638,37.4725028 C22.8018319,37.5263749 22.5455819,37.5712682 22.29375,37.6116723 C22.2407328,37.620651 22.1921336,37.6251403 22.1391164,37.634119 C21.8828664,37.674523 22.3246767,37.6116723 22.1567888,37.634119 C22.0154095,37.6520763 21.8740302,37.6700337 21.7282328,37.6835017 C20.6767241,37.7912458 19.6163793,37.7912458 18.5648707,37.6835017 C18.4367457,37.6700337 18.3042026,37.6565657 18.1760776,37.6386083 C18.109806,37.6296296 17.9728448,37.634119 18.2335129,37.647587 C18.1716595,37.6430976 18.1053879,37.6296296 18.0435345,37.620651 C17.7740302,37.5802469 17.508944,37.5308642 17.2438578,37.4769921 C16.7446121,37.3737374 16.2497845,37.2435466 15.7637931,37.0909091 C15.4987069,37.0056117 15.2336207,36.9158249 14.9729526,36.8170595 C14.8448276,36.7676768 14.7122845,36.7182941 14.5841595,36.664422 C14.5267241,36.6419753 14.4692888,36.6150393 14.4118534,36.5925926 C14.1688578,36.4938272 14.6327586,36.691358 14.394181,36.5836139 C13.8684267,36.345679 13.3559267,36.0852974 12.856681,35.7979798 C12.3662716,35.5106622 11.6505388,35.6632997 11.3766164,36.1930415 C11.102694,36.7138047 11.2396552,37.3916947 11.7654095,37.6969697 C15.675431,39.9640853 20.416056,40.5656566 24.7502155,39.3131313 C25.9519397,38.9674523 27.118319,38.4736251 28.2184267,37.8720539 C28.7176724,37.5982043 28.9164871,36.8529742 28.6072198,36.3681257 C28.2758621,35.8563412 27.6573276,35.681257 27.1227371,35.9775533 L27.1227371,35.9775533 Z" id="Shape"></path>
                        <path d="M26.6279095,9.44107744 C27.4320043,9.84960718 28.1963362,10.325477 28.9209052,10.8641975 C29.0092672,10.9270483 29.0887931,11.0078563 29.1815733,11.0617284 C29.1639009,11.0527497 28.9783405,10.8956229 29.1153017,11.0123457 C29.1594828,11.0482604 29.1992457,11.0796857 29.2434267,11.1156004 C29.4201509,11.2592593 29.596875,11.4118967 29.769181,11.5645342 C30.0961207,11.8563412 30.409806,12.1616162 30.7146552,12.4803591 C31.0239224,12.8080808 31.3199353,13.1447811 31.602694,13.4949495 C31.6645474,13.5712682 31.7264009,13.6520763 31.7882543,13.7283951 C31.9340517,13.9169473 31.6380388,13.5218855 31.7794181,13.714927 C31.8059267,13.7508418 31.8324353,13.7867565 31.858944,13.8226712 C32.0003233,14.020202 32.1417026,14.2177329 32.2742457,14.4197531 C32.7646552,15.1560045 33.1976293,15.9371493 33.5599138,16.7452301 C33.612931,16.8664422 33.6571121,16.996633 33.7189655,17.1133558 C33.5952586,16.8709315 33.6615302,16.969697 33.6880388,17.037037 C33.7189655,17.1088664 33.7454741,17.1806958 33.7764009,17.2570146 C33.869181,17.4994388 33.9575431,17.7418631 34.0414871,17.9887767 C34.2049569,18.4826038 34.3463362,18.9854097 34.465625,19.4971942 C34.59375,20.0583614 35.2564655,20.4444444 35.7954741,20.2648709 C36.3698276,20.0763187 36.687931,19.5106622 36.5509698,18.9135802 C35.6585129,15.043771 33.4185345,11.6228956 30.3302802,9.20763187 C29.512931,8.5701459 28.6425647,8.01346801 27.7235991,7.54657688 C27.2199353,7.29068462 26.5262931,7.39393939 26.2435345,7.94163861 C25.9828664,8.43546577 26.0889009,9.16722783 26.6279095,9.44107744 L26.6279095,9.44107744 Z" id="Shape"></path>
                    </g>
                </g>
            </g>
        </g>
    </g>
</svg>