<?xml version="1.0" encoding="UTF-8"?>
<svg width="91px" height="89px" viewBox="0 0 91 89" version="1.1" xmlns="http://www.w3.org/2000/svg" xmlns:xlink="http://www.w3.org/1999/xlink">
    <!-- Generator: Sketch 47.1 (45422) - http://www.bohemiancoding.com/sketch -->
    <title>noun_642227_cc</title>
    <desc>Created with Sketch.</desc>
    <defs></defs>
    <g id="2.0" stroke="none" stroke-width="1" fill="none" fill-rule="evenodd">
        <g id="Playbook-ui" transform="translate(-262.000000, -2861.000000)" fill-rule="nonzero" fill="#000000">
            <g id="02" transform="translate(225.000000, 2365.000000)">
                <g id="noun_642227_cc" transform="translate(37.000000, 496.000000)">
                    <g id="Group">
                        <path d="M62.0837123,21.0289953 C64.0352632,22.5036134 66.3527298,23.2409224 68.9141404,23.2409224 C72.2073825,23.2409224 75.1347088,21.8891892 77.2082316,19.677262 C77.5741474,19.4314924 77.8180912,18.939953 78.3059789,18.4484136 C79.6476702,16.4822562 80.5014737,14.270329 80.5014737,11.6897474 C80.5014737,5.17685076 75.2566807,0.0156874266 68.9141404,0.0156874266 C65.6208982,0.0156874266 62.8155439,1.36742068 60.7420211,3.45646298 C62.5716,6.40569918 63.5473754,9.96935958 63.5473754,13.53302 C63.5473754,16.2364865 62.9375158,18.6941833 62.0837123,21.0289953 Z" id="Shape"></path>
                        <path d="M22.4428351,40.4448002 C24.8822737,36.8811398 27.3217123,34.0547885 30.3710105,31.7199765 C27.5656561,29.753819 24.394386,28.7707403 21.7110035,28.7707403 C12.5631088,28.8936251 -3.55271368e-15,40.8134548 -3.55271368e-15,59.98349 C-3.55271368e-15,62.4411868 0.731831579,64.2844595 2.56141053,66.0048472 C4.87887719,68.2167744 9.75775439,69.8142773 15.1245193,70.3058167 C14.8805754,69.1998531 14.6366316,68.2167744 14.6366316,66.987926 C14.5146596,58.0173325 17.441986,48.0636604 22.4428351,40.4448002 Z" id="Shape"></path>
                        <path d="M68.9141404,28.8936251 C66.108786,28.8936251 62.8155439,30.1224736 59.6442737,32.2115159 C62.3276561,34.3005582 64.6451228,37.1269095 66.9625895,40.4448002 C70.3778035,45.7288484 72.8172421,52.241745 74.0369614,58.6317568 C75.6225965,57.648678 77.3302035,56.911369 79.1597825,56.911369 C83.4288,56.911369 87.4538737,59.0004113 89.7713404,62.6869565 L89.7713404,62.8098414 C89.8933123,63.055611 90.0152842,63.3013807 90.1372561,63.4242656 C90.6251439,62.4411868 90.8690877,61.2123384 90.8690877,59.98349 C90.8690877,40.6905699 78.0620351,28.8936251 68.9141404,28.8936251 Z" id="Shape"></path>
                        <path d="M44.7636982,26.0672738 C51.7160982,26.0672738 57.4487789,20.4145711 57.4487789,13.2872503 C57.4487789,6.28281434 51.8380702,0.507226792 44.7636982,0.507226792 C37.6893263,0.630111633 32.0786175,6.40569918 32.0786175,13.2872503 C32.0786175,20.2916863 37.8112982,26.0672738 44.7636982,26.0672738 Z" id="Shape"></path>
                        <path d="M53.1797614,74.6067861 C51.2282105,70.4287015 51.2282105,66.3735018 53.1797614,62.6869565 L53.3017333,62.5640717 C55.6192,59.0004113 59.5223018,56.7884841 63.9132912,56.7884841 C65.8648421,56.7884841 67.5724491,57.5257932 69.2800561,58.6317568 C66.3527298,41.7965335 54.5214526,31.8428613 45.4955298,31.8428613 C35.2498877,31.8428613 21.2231158,44.9915394 21.2231158,66.6192714 C21.2231158,69.322738 22.0769193,71.4117803 23.9064982,73.2550529 C27.6876281,76.8187133 36.5915789,78.5391011 45.6175018,78.5391011 C48.7887719,78.5391011 52.082014,78.2933314 55.0093404,77.801792 L54.8873684,76.9415981 C54.0335649,76.3271739 53.5456772,75.46698 53.1797614,74.6067861 Z" id="Shape"></path>
                        <path d="M13.2949404,20.0459166 C15.3684632,22.2578437 18.4177614,23.609577 21.5890316,23.609577 C23.7845263,23.609577 25.9800211,22.9951528 27.5656561,21.7663043 C26.4679088,19.1857227 25.9800211,16.4822562 25.9800211,13.6559048 C25.9800211,9.60070505 27.1997404,6.03704465 29.2732632,2.96492362 C27.1997404,1.121651 24.6383298,0.138572268 21.7110035,0.138572268 C15.2464912,0.138572268 10.1236702,5.42262045 10.1236702,11.8126322 C10.1236702,14.3932139 10.8555018,16.605141 12.3191649,18.5712985 C12.6850807,19.0628378 13.0509965,19.5543772 13.2949404,20.0459166 Z" id="Shape"></path>
                        <path d="M86.965986,74.1152468 C88.4296491,71.0431257 88.4296491,68.0938895 86.844014,65.390423 C85.136407,62.6869565 82.3310526,60.9665687 78.7938667,60.9665687 C76.2324561,60.9665687 73.7930175,63.3013807 72.0854105,64.8988837 C70.3778035,63.1784959 67.9383649,61.0894536 65.3769544,61.0894536 C62.0837123,61.0894536 59.156386,62.8098414 57.4487789,65.390423 L57.4487789,65.390423 C55.9851158,68.0938895 55.9851158,71.0431257 57.4487789,74.2381316 C58.7904702,76.9415981 61.1079368,79.2764101 62.5716,80.6281434 C64.6451228,82.7171857 70.3778035,87.3868096 71.3535789,88.2470035 L72.0854105,88.8614277 L72.8172421,88.2470035 C74.0369614,87.14104 79.6476702,82.471416 81.5992211,80.3823737 C83.6727439,78.9077556 85.7462667,76.5729436 86.965986,74.1152468 Z" id="Shape"></path>
                    </g>
                </g>
            </g>
        </g>
    </g>
</svg>